# xmcd
#
# Track frame offsets: 
#        150
#        19194
#        48554
#        68969
#        103368
#        109675
#        140135
#        172233
#        204271
#        231411
#        256318
#
# Disc length: 3710 seconds
#
# Revision: 1
# Processed by: cddbd v1.5.2PL0 Copyright (c) Steve Scherf et al.
# Submitted via: ExactAudioCopy v1.1
#
DISCID=a90e7c0b
DTITLE=Ben Williams - State of Art
DYEAR=2011
DGENRE=Jazz
TTITLE0=Home
TTITLE1=Moontrane
TTITLE2=The Lee Morgan Story
TTITLE3=Dawn of a New Day
TTITLE4=Little Susie (Intro)
TTITLE5=Little Susie
TTITLE6=November
TTITLE7=Part-Time Lover
TTITLE8=Things Don't Exist
TTITLE9=Mr. Dynamite
TTITLE10=Moonlight In Vermont
EXTD=YEAR: 2011
EXTT0=
EXTT1=
EXTT2=
EXTT3=
EXTT4=
EXTT5=
EXTT6=
EXTT7=
EXTT8=
EXTT9=
EXTT10=
PLAYORDER=
